<svg width="240" height="240" viewBox="0 0 240 240" xmlns="http://www.w3.org/2000/svg">
  <circle cx="120" cy="120" r="108" fill="none" stroke="#1a1a1a" stroke-width="2.5"/>
  <circle cx="120" cy="120" r="92" fill="none" stroke="#1a1a1a" stroke-width="1.2" opacity="0.9"/>
  <circle cx="120" cy="120" r="78" fill="none" stroke="#1a1a1a" stroke-width="0.9" opacity="0.8"/>
  <g fill="none" stroke="#1a1a1a" stroke-width="0.9" opacity="0.8" stroke-linecap="round" stroke-linejoin="round">
    <line x1="120" y1="18" x2="120" y2="28"/>
    <line x1="120" y1="212" x2="120" y2="222"/>
    <line x1="18" y1="120" x2="28" y2="120"/>
    <line x1="212" y1="120" x2="222" y2="120"/>
    <path d="M40 150 C70 120, 95 118, 120 132 C145 145, 165 120, 200 110"/>
    <path d="M85 140 L105 160 L130 140"/>
    <path d="M120 145 L140 160 L160 145"/>
    <path d="M118 150 C110 165, 125 175, 115 190 C108 205, 130 205, 125 190 C120 175, 135 165, 125 150"/>
    <path d="M70 155 L65 165 L75 165 Z"/>
    <path d="M70 148 L64 158 L76 158 Z"/>
    <line x1="70" y1="165" x2="70" y2="173"/>
    <path d="M90 160 L85 170 L95 170 Z"/>
    <path d="M90 153 L84 163 L96 163 Z"/>
    <line x1="90" y1="170" x2="90" y2="178"/>
    <path d="M165 158 L160 168 L170 168 Z"/>
    <path d="M165 151 L159 161 L171 161 Z"/>
    <line x1="165" y1="168" x2="165" y2="176"/>
  </g>
  <circle cx="155" cy="78" r="5.5" fill="#1a1a1a" opacity="0.9"/>
  <path d="M35 160 L75 120 L110 160 L140 130 L175 160" fill="none" stroke="#1a1a1a" stroke-width="1.2" opacity="0.9"/>
  <path d="M50 170 L90 125 L125 170 L150 140 L185 170 Z" fill="#1a1a1a" opacity="0.55"/>
  <path d="M60 180 C95 175, 145 175, 180 180" fill="none" stroke="#1a1a1a" stroke-width="1.2" opacity="0.9"/>
</svg>
